<svg width="12" height="14" viewBox="0 0 12 14" fill="none" xmlns="http://www.w3.org/2000/svg">
<path fill-rule="evenodd" clip-rule="evenodd" d="M5.69333 13.9007L5.74 13.9273L5.75867 13.938C5.83269 13.978 5.91552 13.999 5.99967 13.999C6.08382 13.999 6.16664 13.978 6.24067 13.938L6.25933 13.928L6.30667 13.9007C6.56741 13.7461 6.82184 13.581 7.06933 13.406C7.71005 12.9537 8.30869 12.4445 8.858 11.8847C10.154 10.558 11.5 8.56467 11.5 6C11.5 4.54131 10.9205 3.14236 9.88909 2.11091C8.85764 1.07946 7.45869 0.5 6 0.5C4.54131 0.5 3.14236 1.07946 2.11091 2.11091C1.07946 3.14236 0.5 4.54131 0.5 6C0.5 8.564 1.84667 10.558 3.142 11.8847C3.6911 12.4445 4.28952 12.9536 4.93 13.406C5.17771 13.5811 5.43236 13.7461 5.69333 13.9007ZM6 8C6.53043 8 7.03914 7.78929 7.41421 7.41421C7.78929 7.03914 8 6.53043 8 6C8 5.46957 7.78929 4.96086 7.41421 4.58579C7.03914 4.21071 6.53043 4 6 4C5.46957 4 4.96086 4.21071 4.58579 4.58579C4.21071 4.96086 4 5.46957 4 6C4 6.53043 4.21071 7.03914 4.58579 7.41421C4.96086 7.78929 5.46957 8 6 8Z" fill="#828282"/>
</svg>
